<!-- <svg xmlns="http://www.w3.org/2000/svg" viewBox="0 0 841.9 595.3">
    <g fill="#61DAFB">
        <path d="M666.3 296.5c0-32.5-40.7-63.3-103.1-82.4 14.4-63.6 8-114.2-20.2-130.4-6.5-3.8-14.1-5.6-22.4-5.6v22.3c4.6 0 8.3.9 11.4 2.6 13.6 7.8 19.5 37.5 14.9 75.7-1.1 9.4-2.9 19.3-5.1 29.4-19.6-4.8-41-8.5-63.5-10.9-13.5-18.5-27.5-35.3-41.6-50 32.6-30.3 63.2-46.9 84-46.9V78c-27.5 0-63.5 19.6-99.9 53.6-36.4-33.8-72.4-53.2-99.9-53.2v22.3c20.7 0 51.4 16.5 84 46.6-14 14.7-28 31.4-41.3 49.9-22.6 2.4-44 6.1-63.6 11-2.3-10-4-19.7-5.2-29-4.7-38.2 1.1-67.9 14.6-75.8 3-1.8 6.9-2.6 11.5-2.6V78.5c-8.4 0-16 1.8-22.6 5.6-28.1 16.2-34.4 66.7-19.9 130.1-62.2 19.2-102.7 49.9-102.7 82.3 0 32.5 40.7 63.3 103.1 82.4-14.4 63.6-8 114.2 20.2 130.4 6.5 3.8 14.1 5.6 22.5 5.6 27.5 0 63.5-19.6 99.9-53.6 36.4 33.8 72.4 53.2 99.9 53.2 8.4 0 16-1.8 22.6-5.6 28.1-16.2 34.4-66.7 19.9-130.1 62-19.1 102.5-49.9 102.5-82.3zm-130.2-66.7c-3.7 12.9-8.3 26.2-13.5 39.5-4.1-8-8.4-16-13.1-24-4.6-8-9.5-15.8-14.4-23.4 14.2 2.1 27.9 4.7 41 7.9zm-45.8 106.5c-7.8 13.5-15.8 26.3-24.1 38.2-14.9 1.3-30 2-45.2 2-15.1 0-30.2-.7-45-1.9-8.3-11.9-16.4-24.6-24.2-38-7.6-13.1-14.5-26.4-20.8-39.8 6.2-13.4 13.2-26.8 20.7-39.9 7.8-13.5 15.8-26.3 24.1-38.2 14.9-1.3 30-2 45.2-2 15.1 0 30.2.7 45 1.9 8.3 11.9 16.4 24.6 24.2 38 7.6 13.1 14.5 26.4 20.8 39.8-6.3 13.4-13.2 26.8-20.7 39.9zm32.3-13c5.4 13.4 10 26.8 13.8 39.8-13.1 3.2-26.9 5.9-41.2 8 4.9-7.7 9.8-15.6 14.4-23.7 4.6-8 8.9-16.1 13-24.1zM421.2 430c-9.3-9.6-18.6-20.3-27.8-32 9 .4 18.2.7 27.5.7 9.4 0 18.7-.2 27.8-.7-9 11.7-18.3 22.4-27.5 32zm-74.4-58.9c-14.2-2.1-27.9-4.7-41-7.9 3.7-12.9 8.3-26.2 13.5-39.5 4.1 8 8.4 16 13.1 24 4.7 8 9.5 15.8 14.4 23.4zM420.7 163c9.3 9.6 18.6 20.3 27.8 32-9-.4-18.2-.7-27.5-.7-9.4 0-18.7.2-27.8.7 9-11.7 18.3-22.4 27.5-32zm-74 58.9c-4.9 7.7-9.8 15.6-14.4 23.7-4.6 8-8.9 16-13 24-5.4-13.4-10-26.8-13.8-39.8 13.1-3.1 26.9-5.8 41.2-7.9zm-90.5 125.2c-35.4-15.1-58.3-34.9-58.3-50.6 0-15.7 22.9-35.6 58.3-50.6 8.6-3.7 18-7 27.7-10.1 5.7 19.6 13.2 40 22.5 60.9-9.2 20.8-16.6 41.1-22.2 60.6-9.9-3.1-19.3-6.5-28-10.2zM310 490c-13.6-7.8-19.5-37.5-14.9-75.7 1.1-9.4 2.9-19.3 5.1-29.4 19.6 4.8 41 8.5 63.5 10.9 13.5 18.5 27.5 35.3 41.6 50-32.6 30.3-63.2 46.9-84 46.9-4.5-.1-8.3-1-11.3-2.7zm237.2-76.2c4.7 38.2-1.1 67.9-14.6 75.8-3 1.8-6.9 2.6-11.5 2.6-20.7 0-51.4-16.5-84-46.6 14-14.7 28-31.4 41.3-49.9 22.6-2.4 44-6.1 63.6-11 2.3 10.1 4.1 19.8 5.2 29.1zm38.5-66.7c-8.6 3.7-18 7-27.7 10.1-5.7-19.6-13.2-40-22.5-60.9 9.2-20.8 16.6-41.1 22.2-60.6 9.9 3.1 19.3 6.5 28.1 10.2 35.4 15.1 58.3 34.9 58.3 50.6-.1 15.7-23 35.6-58.4 50.6zM320.8 78.4z"/>
        <circle cx="420.9" cy="296.5" r="45.7"/>
        <path d="M520.5 78.1z"/>
    </g>
</svg> -->
 <svg version="1.0" xmlns="http://www.w3.org/2000/svg" width="700.000000pt" height="1050.000000pt" viewBox="0 0 700.000000 1050.000000" preserveAspectRatio="xMidYMid meet">
<g transform="translate(0.000000,1050.000000) scale(0.100000,-0.100000)" fill="#000000" stroke="none">
<path d="M0 6901 l0 -3599 40 -7 c32 -5 47 -2 76 16 l36 22 53 -26 c63 -33
139 -36 199 -9 23 10 64 26 91 36 28 10 68 24 90 33 46 17 95 11 119 -16 16
-18 29 -19 149 -14 81 4 142 11 159 19 33 17 67 18 105 3 28 -12 51 -16 108
-23 17 -1 38 -6 48 -11 10 -4 21 -5 24 -2 3 4 15 0 27 -8 27 -20 38 -19 34 3
-2 12 5 18 22 20 14 2 63 12 108 24 67 16 98 19 150 13 37 -4 77 -8 90 -9 12
0 22 -4 22 -7 0 -4 14 -12 30 -19 22 -9 34 -9 43 -1 7 6 31 9 53 7 180 -18
223 -18 293 -1 71 17 137 17 284 -1 37 -5 61 0 113 20 l66 27 49 -26 c60 -31
81 -31 144 0 61 30 89 31 157 5 76 -29 98 -42 98 -56 0 -40 141 -25 245 26 86
43 94 44 233 21 28 -4 52 -4 52 0 0 5 4 9 10 9 5 0 7 -6 4 -13 -13 -34 24 -42
215 -42 124 0 195 -4 214 -13 28 -12 62 -72 69 -122 1 -14 6 -27 10 -30 3 -3
17 -41 29 -85 12 -44 40 -138 62 -209 35 -113 38 -134 28 -161 -15 -41 -14
-50 3 -36 11 10 16 8 21 -8 3 -12 3 -26 0 -31 -4 -6 -2 -16 3 -23 19 -24 31
-145 30 -292 0 -82 4 -188 11 -235 6 -46 11 -121 11 -166 l0 -82 -34 -21 c-40
-25 -68 -26 -186 -5 -112 19 -145 16 -145 -11 0 -11 -4 -24 -10 -28 -11 -8 81
-97 101 -97 6 0 17 -7 24 -15 7 -8 24 -15 39 -15 14 0 38 -6 53 -14 15 -8 37
-12 49 -9 14 4 25 0 31 -10 7 -13 14 -14 34 -7 48 19 46 10 -15 -59 -75 -85
-146 -134 -179 -126 -31 8 -68 -30 -51 -52 16 -18 28 -16 47 7 13 15 21 17 32
10 12 -8 12 -12 2 -18 -20 -13 -8 -54 22 -77 23 -16 41 -20 107 -19 123 3 320
41 403 79 30 14 59 25 65 25 5 0 18 11 29 25 11 14 24 24 29 23 8 -2 135 35
181 53 13 5 32 9 43 9 40 0 86 30 92 60 6 27 51 60 83 60 12 0 103 56 114 70
3 4 22 10 43 13 46 7 197 68 197 79 0 4 23 8 51 8 40 0 60 6 94 30 24 16 47
30 52 30 14 0 160 66 190 85 15 11 34 18 42 16 9 -1 12 3 8 13 -5 11 0 16 13
16 23 0 51 14 102 53 22 17 38 23 40 16 2 -7 15 -1 32 14 16 15 37 29 47 32
11 4 19 11 19 16 0 5 9 9 20 9 11 0 23 7 26 15 4 8 10 12 15 9 5 -3 21 4 35
15 15 12 36 21 47 21 20 0 20 1 2 13 -16 13 -14 14 24 20 28 3 48 13 58 26 8
12 18 19 22 17 4 -3 19 6 33 19 18 17 34 23 52 19 19 -3 26 0 26 11 0 13 17
19 38 13 4 -2 7 -14 7 -28 1 -30 3 -31 38 -3 28 22 23 38 -10 27 -15 -5 -15
-4 2 7 11 7 33 14 49 16 36 4 86 56 79 82 -5 20 25 44 57 47 8 1 25 4 38 8 18
6 22 4 22 -15 0 -29 9 -19 16 17 5 26 13 37 39 48 6 3 3 9 -5 15 -13 10 -13
12 0 21 8 5 23 10 33 10 16 0 17 102 17 2005 l0 2005 -53 0 c-30 0 -100 -4
-158 -10 -237 -21 -486 -40 -669 -51 -107 -6 -198 -13 -201 -15 -15 -9 -599
-29 -873 -29 l-299 0 -10 23 c-6 12 -14 22 -18 22 -9 0 -49 81 -49 100 0 7 6
21 14 29 8 9 20 58 27 110 13 89 12 94 -6 107 -16 12 -20 27 -20 92 -1 67 -5
87 -36 153 -38 79 -72 114 -141 142 -133 55 -246 54 -317 -2 -76 -60 -96 -122
-81 -252 6 -50 11 -129 11 -176 1 -129 13 -89 19 61 5 126 6 134 33 169 41 54
77 69 168 70 105 0 159 -16 187 -57 23 -34 29 -80 12 -91 -16 -10 -11 -28 6
-21 9 3 19 4 24 1 13 -8 -14 -55 -32 -55 -27 0 -30 -18 -8 -40 32 -32 25 -40
-32 -33 -48 6 -52 5 -40 -10 8 -9 20 -13 28 -10 8 3 21 -1 30 -8 14 -11 18
-10 29 5 8 10 21 16 30 14 14 -2 17 -19 19 -108 2 -146 -14 -193 -85 -242 -66
-47 -152 -55 -107 -10 10 10 5 11 -22 6 -41 -8 -59 -28 -30 -32 11 -2 20 -7
20 -12 0 -4 10 -10 22 -13 l22 -6 -24 -26 c-13 -14 -34 -25 -47 -25 -29 0 -30
-16 -1 -23 22 -6 62 19 53 33 -2 4 15 17 38 30 23 13 53 31 67 40 69 47 170
101 178 96 5 -3 2 -31 -7 -65 -13 -48 -34 -82 -96 -161 -44 -56 -81 -105 -83
-110 -5 -15 -23 -12 -43 6 -10 9 -23 13 -29 9 -24 -15 -215 -296 -256 -377
-24 -47 -50 -119 -59 -160 -9 -40 -21 -97 -27 -125 -6 -29 -15 -53 -19 -53
-12 0 -11 33 0 46 9 9 4 60 -20 207 -7 43 -7 72 -1 80 5 7 12 30 16 52 23 151
37 187 89 242 l30 32 -25 33 c-14 18 -28 51 -32 73 -7 40 -6 41 59 95 77 64
81 84 30 149 -19 24 -40 58 -47 77 -6 19 -16 34 -20 34 -17 0 -7 -49 17 -84
14 -20 25 -38 25 -40 0 -6 -109 15 -149 29 -73 25 -336 39 -491 24 -97 -9
-184 -10 -310 -3 -96 5 -204 6 -240 3 -36 -4 -116 -2 -177 4 -107 10 -116 10
-166 -11 -62 -26 -78 -27 -212 -19 -182 13 -234 26 -340 92 -22 14 -64 34 -93
45 -50 19 -55 19 -88 4 -21 -10 -47 -14 -68 -11 -19 3 -53 1 -76 -4 -36 -8
-49 -6 -97 16 -51 25 -65 26 -226 29 l-172 3 -145 75 c-117 61 -144 79 -142
94 5 28 37 58 95 89 75 41 188 118 216 149 l25 26 -28 56 c-44 87 -23 127 115
209 115 68 155 101 188 155 25 40 39 51 93 72 34 14 86 28 113 32 28 3 86 20
130 37 44 17 121 46 172 65 119 43 133 53 193 135 29 40 58 69 68 69 21 0 52
-20 115 -76 53 -47 122 -77 231 -100 123 -26 189 -31 266 -22 41 4 156 12 255
17 225 12 319 25 415 56 41 14 107 31 145 39 39 8 143 44 232 80 89 36 238 88
330 117 92 28 175 55 185 60 9 5 63 20 120 35 100 25 306 91 533 172 138 48
287 115 480 213 83 42 195 93 249 113 130 49 228 108 279 168 49 58 203 171
343 251 136 77 263 125 427 161 l27 6 0 645 0 645 -3500 0 -3500 0 0 -3599z
m4676 -985 c-10 -27 -25 -47 -37 -51 -10 -3 -29 -8 -40 -11 -20 -6 -18 -1 11
40 18 25 40 46 47 46 8 0 12 4 9 9 -6 9 15 22 23 15 2 -2 -4 -24 -13 -48z
m204 -11 c7 -9 8 -15 2 -15 -5 0 -12 7 -16 15 -3 8 -4 15 -2 15 2 0 9 -7 16
-15z m-387 -170 c11 -5 14 -11 9 -19 -5 -6 -8 -19 -7 -28 2 -10 -5 -20 -17
-24 -16 -5 -18 -8 -7 -15 10 -6 11 -9 2 -9 -7 0 -13 -7 -13 -17 0 -9 -18 -33
-41 -55 -33 -32 -43 -36 -59 -28 -12 7 -22 26 -26 50 -4 27 -12 40 -23 41 -9
0 0 5 19 11 19 6 30 13 23 15 -14 5 4 53 20 53 5 0 7 6 4 14 -8 21 75 28 116
11z m-297 -15 c15 0 17 -12 8 -47 -4 -13 -13 -23 -20 -23 -8 0 -14 -6 -14 -14
0 -16 -27 -29 -34 -17 -6 9 11 77 27 106 7 13 12 16 15 7 2 -6 10 -12 18 -12z
m769 -350 c12 -20 -6 -50 -30 -50 -29 0 -42 18 -19 27 13 5 11 8 -12 19 -16 7
-23 13 -16 13 6 1 12 8 12 16 0 14 3 14 29 0 17 -8 33 -19 36 -25z m-279 -223
c-8 -84 -15 -100 -54 -127 -47 -32 -64 -39 -132 -56 -76 -18 -100 -18 -101 4
0 13 -2 14 -6 2 -4 -8 -11 -20 -17 -26 -6 -6 -38 -41 -71 -77 -32 -37 -64 -67
-70 -67 -14 0 -35 57 -28 75 2 8 12 17 22 20 9 3 43 32 76 65 79 79 46 83 -42
5 -55 -50 -92 -68 -94 -47 0 4 -2 17 -3 28 -3 25 20 61 31 50 4 -4 1 -11 -6
-15 -8 -5 -9 -11 -3 -15 12 -7 89 33 155 80 26 19 49 34 51 34 3 0 7 -17 9
-37 3 -35 4 -35 5 9 l2 47 77 42 c55 31 93 44 137 49 34 4 62 8 64 9 2 0 1
-23 -2 -52z m-626 22 c0 -5 -4 -9 -10 -9 -5 0 -10 7 -10 16 0 8 5 12 10 9 6
-3 10 -10 10 -16z m300 11 c0 -5 -4 -10 -10 -10 -5 0 -10 -6 -10 -14 0 -7 -16
-26 -35 -40 -19 -15 -35 -22 -35 -17 0 6 5 11 11 11 7 0 10 14 7 35 -4 36 2
41 50 44 12 0 22 -3 22 -9z m-330 -21 c0 -6 -4 -7 -10 -4 -5 3 -10 11 -10 16
0 6 5 7 10 4 6 -3 10 -11 10 -16z m-8 -187 c-2 -75 -5 -139 -8 -141 -2 -3 -10
1 -16 7 -9 9 -9 12 0 12 7 0 12 5 12 11 0 5 -4 8 -9 5 -9 -6 -5 186 5 233 12
55 18 0 16 -127z m922 63 c-6 -16 -24 -21 -24 -7 0 11 11 22 21 22 5 0 6 -7 3
-15z m16 -86 c0 -5 -12 -8 -27 -8 -17 1 -21 3 -10 6 9 2 17 9 17 14 0 6 5 7
10 4 6 -3 10 -10 10 -16z m-45 -75 c-1 -14 -11 -35 -23 -46 -21 -21 -21 -21
-16 -1 3 12 1 30 -5 41 -9 18 -8 21 12 25 12 2 24 5 27 6 3 0 5 -10 5 -25z
m-870 -64 c3 -5 2 -10 -4 -10 -5 0 -16 -3 -25 -6 -11 -4 -16 -1 -16 10 0 18
35 22 45 6z m875 -83 c0 -26 -4 -21 -24 28 l-16 40 20 -24 c11 -13 20 -32 20
-44z m-60 7 c0 -2 -13 2 -30 11 -16 9 -30 18 -30 21 0 2 14 -2 30 -11 17 -9
30 -18 30 -21z m40 -29 c13 -14 21 -25 18 -25 -2 0 -15 11 -28 25 -13 14 -21
25 -18 25 2 0 15 -11 28 -25z m-725 -34 c3 -5 1 -12 -4 -15 -13 -8 -42 4 -35
15 7 12 31 12 39 0z m637 -71 c3 -16 3 -30 1 -30 -7 0 -21 45 -16 53 7 13 11
8 15 -23z m-23 -119 c-5 -20 -14 -53 -21 -73 l-11 -36 -41 26 c-22 14 -43 28
-46 29 -6 5 32 73 42 73 4 0 8 7 8 15 0 8 5 15 10 15 6 0 10 7 10 15 0 13 6
11 29 -6 26 -19 28 -24 20 -58z m31 57 c0 -6 -6 -5 -15 2 -8 7 -15 14 -15 16
0 2 7 1 15 -2 8 -4 15 -11 15 -16z m-100 -172 c41 -21 77 -40 79 -42 1 -1 -4
-13 -13 -26 -9 -12 -16 -32 -16 -43 0 -11 -14 -36 -30 -55 -29 -34 -31 -34
-45 -16 -32 42 -76 167 -70 197 4 17 10 29 13 27 4 -2 41 -21 82 -42z m-278
-85 c10 -13 18 -31 18 -41 0 -17 -68 -80 -85 -80 -7 0 1 98 11 132 6 22 33 17
56 -11z m1121 -1018 c20 -24 25 -56 10 -74 -7 -8 -10 -25 -6 -37 5 -20 10 -22
42 -16 20 4 45 11 56 17 17 10 18 12 3 15 -25 5 -32 32 -8 32 11 0 20 -4 20
-10 0 -5 5 -10 10 -10 6 0 10 8 10 19 0 13 16 25 54 41 60 24 91 20 99 -11 4
-15 2 -19 -9 -15 -8 3 -14 0 -14 -6 0 -18 33 -37 64 -38 24 0 27 2 16 15 -19
23 25 20 49 -4 30 -30 68 -35 81 -10 16 29 23 17 9 -15 -14 -29 -4 -49 12 -26
9 13 10 13 6 0 -2 -9 -14 -14 -26 -12 -12 1 -29 -5 -38 -13 -13 -13 -13 -21
-3 -45 7 -17 16 -30 21 -30 12 0 11 17 -1 25 -15 9 -12 25 5 25 8 0 15 -7 15
-16 0 -9 6 -14 13 -11 6 2 11 13 9 23 -2 18 -2 18 13 0 8 -11 15 -23 15 -28 0
-4 7 -8 16 -8 8 0 12 4 9 10 -3 6 1 7 9 4 10 -4 16 -1 16 7 0 8 11 27 23 43
18 23 28 27 43 21 18 -7 18 -8 1 -12 -9 -3 -15 -9 -12 -14 4 -5 -1 -9 -9 -9
-22 0 -20 -13 4 -28 11 -7 20 -8 20 -2 0 14 39 32 53 23 24 -15 52 -13 64 4 7
9 13 11 13 5 0 -7 4 -12 10 -12 5 0 9 5 7 12 -1 7 23 12 76 13 75 2 77 2 71
-19 -9 -30 -12 -31 -33 -12 -19 17 -20 17 -31 -3 -6 -12 -15 -19 -21 -16 -16
10 -10 -7 7 -20 12 -8 14 -18 9 -35 -11 -35 -91 -108 -128 -115 -18 -4 -36
-11 -42 -15 -5 -4 -22 -8 -37 -9 -56 -3 -66 -5 -63 -12 3 -3 -5 -15 -15 -27
-11 -12 -19 -31 -17 -44 2 -19 -4 -24 -33 -28 -19 -4 -43 -2 -52 2 -14 7 -18
4 -18 -12 0 -11 -4 -20 -10 -20 -5 0 -10 7 -10 15 0 8 -7 15 -15 15 -7 0 -19
8 -24 18 -8 13 -10 14 -11 2 0 -8 9 -28 20 -45 22 -33 26 -50 10 -40 -6 3 -18
-2 -28 -11 -16 -17 -16 -18 1 -11 34 13 16 -11 -20 -27 -21 -9 -45 -21 -53
-26 -8 -6 -32 -17 -52 -26 -21 -9 -38 -20 -38 -25 0 -5 -9 -9 -19 -9 -10 0
-21 -7 -25 -15 -3 -8 -1 -15 4 -15 6 0 10 -7 10 -15 0 -8 -7 -15 -16 -15 -11
0 -13 -6 -9 -19 5 -16 0 -21 -27 -26 -47 -9 -118 -36 -118 -45 0 -11 -50 -31
-61 -25 -5 4 -9 -1 -9 -10 0 -9 -5 -13 -11 -9 -10 6 -75 -55 -70 -66 6 -15
-10 -40 -26 -40 -19 0 -93 -61 -93 -77 0 -10 -40 -46 -55 -50 -5 -1 -19 -4
-30 -5 -11 -2 -36 -19 -55 -40 -19 -20 -53 -45 -76 -56 -22 -11 -46 -28 -53
-36 -8 -9 -24 -16 -36 -16 -13 0 -25 -6 -28 -14 -3 -7 -14 -16 -25 -18 -18 -5
-22 2 -31 56 -28 152 -38 237 -29 242 5 3 4 11 -2 19 -6 7 -18 64 -26 126 -9
63 -18 130 -20 149 -17 119 -34 404 -24 414 14 14 13 27 -2 24 -9 -2 -15 24
-20 87 -4 50 -9 107 -12 128 -3 31 -1 37 15 37 11 0 52 9 91 20 94 26 112 25
178 -7 74 -35 129 -33 260 10 120 40 189 46 213 20z m37 -103 c0 -5 -2 -10 -4
-10 -3 0 -8 5 -11 10 -3 6 -1 10 4 10 6 0 11 -4 11 -10z m950 -105 c0 -9 -9
-15 -22 -15 -21 0 -21 0 -2 15 24 18 24 18 24 0z m-1060 -769 c0 -11 -19 -15
-25 -6 -3 5 1 10 9 10 9 0 16 -2 16 -4z m-1140 -555 c0 -11 -31 -24 -39 -16
-3 3 1 10 9 15 19 12 30 12 30 1z m-70 -26 c0 -8 -4 -15 -9 -15 -13 0 -22 16
-14 24 11 11 23 6 23 -9z m35 -85 c3 -6 -5 -10 -19 -10 -14 0 -28 5 -31 10 -3
6 5 10 19 10 14 0 28 -4 31 -10z"></path>
</g>
<circle cx="420.9" cy="296.5" r="45.7"/>
<path d="M520.5 78.1z"/>
</svg>
